<svg width="26" height="24" fill="none" xmlns="http://www.w3.org/2000/svg"><path d="M8.89 1.22C5.83 1 3.57 3.58 2.13 6a13 13 0 00-2 8.32 9.17 9.17 0 004.26 6.8 17.89 17.89 0 008.58 2.1 12.57 12.57 0 007.9-2.24 11.07 11.07 0 004-6.73C25.79 9.29 24.14 3 19.25.74c-3.17-1.48-6.69-.45-9.84.57-2.82.91-5.68 2.29-7.08 5.06-.86 1.72 1.73 3.24 2.6 1.51a7.38 7.38 0 014.36-3.36C11.42 3.74 14 2.8 16.25 3c4 .31 5.91 5 5.87 8.5 0 4.33-2.54 7.92-7 8.56a17 17 0 01-6.38-.45c-2.13-.52-4.11-1.46-5.11-3.53a8.4 8.4 0 01.18-7c.84-1.92 2.58-5.08 5-4.88 1.92.16 1.91-2.84 0-3l.08.02z" fill="#397A24"/></svg>