<svg width="96" height="96" fill="none" xmlns="http://www.w3.org/2000/svg"><circle cx="50.424" cy="50.424" r="45.297" fill="#DDE9D4"/><path d="M46.566.368c-6.66.347-13.507 1.27-19.617 4.059a30.36 30.36 0 00-10.445 8.113c-1.35 1.596-2.593 3.276-3.832 4.952-1.593 2.141-3.296 4.206-4.795 6.42A45.928 45.928 0 00.153 45.53a38.252 38.252 0 004.152 21.047 36.391 36.391 0 0014.111 14.75 35.75 35.75 0 0010.943 3.851c4.364.812 8.771 1.377 13.2 1.693 8.337.644 16.921.102 24.475-3.775a34.478 34.478 0 0014.98-14.982c3.755-7.453 4.565-15.914 4.714-24.124.038-2.116.03-4.194.02-6.29-.008-2.094 0-4.325-.468-6.432-.851-3.839-3.172-7.36-5.471-10.496A52.903 52.903 0 0064.93 6.416 46.322 46.322 0 0044.64.067a41.589 41.589 0 00-20.013 3.86 39.549 39.549 0 00-15.55 12.697c-4.654 6.467-6.476 14.267-7.03 22.114a93.773 93.773 0 00-.08 12.802c.276 4.16.966 8.338 2.528 12.223A39.442 39.442 0 0016.7 79.918a52.305 52.305 0 008.516 5.366 74.66 74.66 0 004.799 2.239c1.334.537 2.712.962 4.117 1.27 1.589.38 3.19.706 4.79 1.015a40.53 40.53 0 004.974.737 37.19 37.19 0 006.723-.267c2.13-.241 4.301-.533 6.434-.876 4.16-.664 8.316-1.63 12.097-3.521a31.852 31.852 0 005.263-3.377 48.681 48.681 0 004.727-4.085c2.704-2.738 4.407-6.26 6.361-9.522a34.155 34.155 0 004.258-11.004c.713-3.924.97-7.915.767-11.897-.166-4.397-.38-8.888-1.644-13.12-1.158-3.936-3.215-7.508-5.57-10.805a91.846 91.846 0 00-7.792-9.463c-2.793-2.963-5.96-5.638-9.661-7.381-3.7-1.744-7.83-2.646-11.923-3.255-7.907-1.185-16.18-2.07-23.985.233a29.74 29.74 0 00-5.489 2.234c-1.733.923-3.368 2.023-5.067 3.001a29.944 29.944 0 00-4.684 3.123c-1.537 1.32-2.784 3.018-4.02 4.61a35.826 35.826 0 00-5.977 11.062 46.112 46.112 0 00-2.074 11.83 52.36 52.36 0 003.832 22.143A50.359 50.359 0 0019.425 78.85a35.176 35.176 0 0010.006 6.386A36.534 36.534 0 0041.53 87.74c4.227.146 8.46-.138 12.629-.847a64.62 64.62 0 0012.425-3.034 34.031 34.031 0 0010.091-5.769 35.403 35.403 0 007.013-8.08c4.216-6.623 6.213-14.389 6.272-22.197a55.411 55.411 0 00-1.477-12.883 53.218 53.218 0 00-4.28-12.21c-3.427-6.662-9.329-11.74-16.129-14.89a55.66 55.66 0 00-11.347-3.622 60.091 60.091 0 00-12.8-1.524 36.833 36.833 0 00-9.466.97c-2.652.685-5.267 1.523-7.852 2.42-1.205.423-2.401.846-3.585 1.325a15.4 15.4 0 00-2.274 1.04c-1.494.907-2.925 1.956-4.339 2.963a65.714 65.714 0 00-4.121 3.217 35.077 35.077 0 00-6.873 7.652 29.48 29.48 0 00-3.9 9.413A61.194 61.194 0 00.14 42.42a83.141 83.141 0 00.242 11.786c.06.606 1.018.614.958 0A83.776 83.776 0 011.1 42.42a58.67 58.67 0 011.464-10.928 28.397 28.397 0 013.956-9.133 35.408 35.408 0 016.813-7.373 67.766 67.766 0 014.228-3.225 45.036 45.036 0 013.807-2.573c1.822-1.033 3.943-1.668 5.918-2.34 2.496-.847 5.02-1.66 7.58-2.316 3.04-.778 6.2-.93 9.367-.897 4.226.076 8.431.601 12.545 1.566 3.81.847 7.592 1.922 11.13 3.59 6.672 3.148 12.348 8.138 15.657 14.765a53.023 53.023 0 014.096 12.02 53.701 53.701 0 011.341 12.646c-.123 7.618-2.129 15.169-6.314 21.585a34.227 34.227 0 01-6.996 7.867 33.114 33.114 0 01-10.169 5.557 67.147 67.147 0 01-12.084 2.82c-4.09.662-8.238.898-12.378.702a34.726 34.726 0 01-11.948-2.688 34.802 34.802 0 01-9.691-6.5A49.701 49.701 0 017.073 59.157a51.595 51.595 0 01-3.445-21.601c.21-3.982.956-7.918 2.218-11.702 1.376-4.025 3.573-7.58 6.226-10.89 1.23-1.532 2.444-3.085 4.015-4.287a42.846 42.846 0 014.684-2.929c1.665-.96 3.253-2.048 4.982-2.9a28.92 28.92 0 015.484-2.01c7.698-1.989 15.925-1.032 23.662.238 3.977.656 7.966 1.625 11.552 3.508 3.585 1.884 6.527 4.618 9.206 7.576a88.462 88.462 0 017.51 9.37c2.266 3.314 4.148 6.899 5.11 10.805 1.03 4.169 1.21 8.553 1.303 12.828a47.21 47.21 0 01-1.004 11.554 32.898 32.898 0 01-1.704 5.43 45.181 45.181 0 01-2.742 5.197c-1.899 3.26-3.675 6.658-6.532 9.21-3.087 2.75-6.289 5.392-10.112 7.08-3.824 1.689-7.912 2.463-11.991 3.064-4.313.635-8.814 1.372-13.174.745a82.36 82.36 0 01-9.006-1.862c-3.049-.795-5.893-2.188-8.661-3.67a48.492 48.492 0 01-8.129-5.366C11.356 74.272 7.132 68.537 4.927 62.19c-1.346-3.881-1.9-7.982-2.083-12.07a97.138 97.138 0 01.243-12.448A49.02 49.02 0 015.57 25.368a33.582 33.582 0 014.87-9.023A38.976 38.976 0 0126.02 4.32a40.568 40.568 0 0119.67-3.237 45.652 45.652 0 0119.655 6.67 51.883 51.883 0 0115.252 14.33c2.265 3.226 4.488 6.772 4.99 10.755.2 2.11.27 4.23.209 6.348 0 2.04 0 4.076-.055 6.112-.218 7.982-1.171 16.222-5.08 23.336A33.708 33.708 0 0165.47 82.821c-7.592 3.555-16.18 3.733-24.385 2.984a103.475 103.475 0 01-12.953-1.837 33.159 33.159 0 01-10.22-4.038A35.767 35.767 0 014.607 65.058a37.612 37.612 0 01-3.355-20.903A45.284 45.284 0 019.5 23.252c1.4-1.96 2.92-3.835 4.36-5.769 1.192-1.608 2.397-3.208 3.717-4.719A29.286 29.286 0 0127.958 5.02c5.82-2.54 12.314-3.364 18.608-3.695.613-.03.617-.981 0-.952V.368z" fill="#397A24"/></svg>