<svg width="26" height="24" viewBox="0 0 26 24" fill="none" xmlns="http://www.w3.org/2000/svg">
<path d="M8.88969 1.22009C5.82969 1.00009 3.56969 3.58009 2.12969 6.00009C0.543227 8.46826 -0.161644 11.4005 0.129693 14.3201C0.277895 15.7023 0.738413 17.0327 1.47643 18.2108C2.21444 19.3888 3.21064 20.3837 4.38969 21.1201C7.0292 22.5263 9.97912 23.2483 12.9697 23.2201C15.7795 23.3788 18.5614 22.5901 20.8697 20.9801C22.9783 19.2989 24.4006 16.9058 24.8697 14.2501C25.7897 9.29008 24.1397 3.00009 19.2497 0.740085C16.0797 -0.739915 12.5597 0.290085 9.40969 1.31009C6.58969 2.22009 3.72969 3.60009 2.32969 6.37009C1.46969 8.09009 4.05969 9.61009 4.92969 7.88009C5.89533 6.23972 7.45743 5.0359 9.28969 4.52009C11.4197 3.74009 13.9997 2.80009 16.2497 3.00009C20.2497 3.31009 22.1597 8.00008 22.1197 11.5001C22.1197 15.8301 19.5797 19.4201 15.1197 20.0601C12.9837 20.3151 10.8187 20.1624 8.73969 19.6101C6.60969 19.0901 4.62969 18.1501 3.62969 16.0801C3.15441 14.969 2.92445 13.7685 2.95551 12.5604C2.98658 11.3524 3.27793 10.1653 3.80969 9.08008C4.64969 7.16008 6.38969 4.00009 8.80969 4.20009C10.7297 4.36009 10.7197 1.36009 8.80969 1.20009L8.88969 1.22009Z" fill="#397A24"/>
</svg>
