<svg width="96" height="96" viewBox="0 0 96 96" fill="none" xmlns="http://www.w3.org/2000/svg">
<circle cx="50.4244" cy="50.4244" r="45.2965" fill="#DDE9D4"/>
<path d="M46.5658 0.367945C39.9062 0.714991 33.0593 1.63762 26.9491 4.42668C22.9091 6.33407 19.3426 9.1044 16.5041 12.5399C15.1543 14.1355 13.911 15.8157 12.6719 17.4917C11.0794 19.6332 9.37619 21.6985 7.87736 23.912C3.51129 30.3562 0.854358 37.7925 0.153297 45.5304C-0.499315 52.7955 0.940568 60.0952 4.30487 66.5774C7.49703 72.731 12.3933 77.8487 18.416 81.3269C21.8272 83.197 25.524 84.4981 29.3591 85.1782C33.7234 85.9895 38.1304 86.5547 42.559 86.8711C50.8962 87.5145 59.4804 86.9727 67.0341 83.096C73.4856 79.7883 78.7263 74.5467 82.0139 68.1138C85.7695 60.6607 86.5785 52.2005 86.7275 43.9899C86.7658 41.8737 86.7573 39.7957 86.7488 37.7007C86.7403 35.6058 86.7488 33.3754 86.2804 31.2677C85.4288 27.429 83.1082 23.9078 80.8089 20.7717C76.5563 14.9604 71.1528 10.075 64.9307 6.41585C58.7575 2.75736 51.8096 0.583422 44.6412 0.0674548C37.7508 -0.32529 30.871 1.0016 24.6284 3.92728C18.4315 6.75796 13.0751 11.1314 9.07812 16.6241C4.4241 23.091 2.60166 30.891 2.04812 38.7376C1.72952 42.9984 1.70249 47.2758 1.96722 51.5402C2.24399 55.7005 2.93379 59.8778 4.49649 63.763C7.08349 70.11 11.2894 75.6777 16.7 79.9175C19.358 81.975 22.21 83.7722 25.216 85.284C26.7873 86.0882 28.3925 86.8331 30.0148 87.5229C31.3491 88.0601 32.7265 88.4848 34.1324 88.7926C35.7206 89.1735 37.3216 89.4994 38.9226 89.8083C40.5634 90.1565 42.2244 90.4024 43.896 90.5448C46.1407 90.6592 48.3911 90.57 50.6194 90.2781C52.7485 90.0369 54.92 89.7449 57.0533 89.402C61.2134 88.7376 65.3692 87.7726 69.1504 85.8808C71.0122 84.9298 72.775 83.7985 74.4133 82.5035C76.0752 81.2441 77.6539 79.88 79.1397 78.4193C81.8436 75.6811 83.5468 72.1598 85.5012 68.8967C87.5492 65.5007 88.9899 61.7777 89.7592 57.8929C90.4718 53.9694 90.7289 49.9777 90.5257 45.996C90.3596 41.5986 90.1467 37.1082 88.8821 32.8759C87.7239 28.9399 85.6673 25.3679 83.3126 22.071C80.9299 18.7478 78.3267 15.5863 75.5204 12.6076C72.7271 9.64506 69.5591 6.97027 65.8589 5.22658C62.1587 3.48289 58.0284 2.58142 53.9364 1.97197C46.0293 0.786939 37.7559 -0.0976036 29.951 2.20475C28.0508 2.76519 26.2121 3.51382 24.4624 4.43938C22.7294 5.36201 21.0943 6.4624 19.3953 7.44006C17.7386 8.33234 16.1704 9.37812 14.7115 10.5635C13.1743 11.8839 11.9267 13.5811 10.6919 15.1724C8.06057 18.4823 6.03685 22.2273 4.71364 26.2355C3.50948 30.0726 2.81242 34.049 2.63999 38.0647C2.29937 45.6339 3.60655 53.1869 6.47221 60.2079C9.30926 67.3194 13.739 73.6951 19.4251 78.851C22.3715 81.5293 25.7553 83.689 29.4315 85.2375C33.2906 86.7515 37.3821 87.5974 41.5286 87.7388C45.7563 87.8846 49.9881 87.601 54.1579 86.8923C58.3907 86.2939 62.553 85.2774 66.5828 83.8578C70.2554 82.5262 73.6694 80.5748 76.6743 78.0892C79.4099 75.7644 81.7745 73.0402 83.6873 70.0098C87.9027 63.3863 89.8997 55.6201 89.9594 47.8116C89.9728 43.4748 89.477 39.1512 88.4818 34.9286C87.5579 30.7014 86.1209 26.6014 84.2025 22.7185C80.7748 16.0569 74.8732 10.9782 68.0731 7.82942C64.4326 6.21986 60.628 5.00524 56.7255 4.20661C52.5267 3.24137 48.2352 2.73053 43.9258 2.68299C40.7416 2.59548 37.5596 2.92129 34.4602 3.65218C31.8075 4.33781 29.193 5.1758 26.6084 6.07303C25.4034 6.49626 24.2069 6.91949 23.0232 7.39773C22.2378 7.68232 21.4773 8.03053 20.7494 8.43887C19.2548 9.34457 17.8241 10.3942 16.4104 11.4015C14.9968 12.4087 13.6342 13.488 12.2887 14.618C9.63227 16.8194 7.3166 19.3977 5.41622 22.2699C3.57862 25.1598 2.25896 28.3445 1.51587 31.6825C0.741075 35.2144 0.280849 38.8074 0.140523 42.4197C-0.0575852 46.3494 0.0235187 50.2882 0.38323 54.2065C0.442843 54.8118 1.4009 54.8202 1.34129 54.2065C0.983693 50.288 0.902592 46.3495 1.09858 42.4197C1.24267 38.7397 1.73306 35.0812 2.56334 31.492C3.33302 28.2406 4.67198 25.1491 6.51905 22.3588C8.42639 19.5923 10.7204 17.1098 13.3319 14.9862C14.6945 13.8519 16.1124 12.7854 17.5601 11.7612C18.784 10.8395 20.0546 9.98063 21.3668 9.18798C23.1892 8.15531 25.3097 7.52047 27.2854 6.84754C29.7807 6.00109 32.3057 5.18849 34.8647 4.53249C37.905 3.75376 41.0644 3.60139 44.2324 3.63525C48.458 3.71145 52.6633 4.23641 56.7766 5.20119C60.5875 6.04764 64.3686 7.12264 67.907 8.79015C74.5794 11.9389 80.2553 16.9288 83.5638 23.5565C85.4064 27.3864 86.7816 31.4216 87.66 35.5761C88.6065 39.7243 89.0567 43.969 89.0013 48.2221C88.8778 55.8402 86.8723 63.3906 82.6866 69.8067C80.7765 72.7719 78.4167 75.4259 75.6907 77.6744C72.6575 80.1082 69.2151 81.9895 65.5225 83.2314C61.5912 84.5417 57.5456 85.4853 53.4383 86.0501C49.3482 86.7132 45.1996 86.9486 41.0602 86.7526C36.9482 86.5714 32.902 85.6612 29.1121 84.0652C25.5359 82.4572 22.2592 80.2592 19.4209 77.5644C13.9663 72.4286 9.74577 66.1375 7.07259 59.1583C4.39301 52.2829 3.21867 44.9188 3.62785 37.5568C3.83798 33.5751 4.5841 29.6393 5.84628 25.8546C7.22162 21.8297 9.41877 18.2746 12.0715 14.965C13.3021 13.4329 14.5156 11.8797 16.0868 10.6777C17.5829 9.60209 19.1475 8.6238 20.7707 7.74901C22.4356 6.78829 24.0238 5.7006 25.7526 4.84991C27.5074 3.99672 29.3449 3.32315 31.2369 2.83959C38.9354 0.850423 47.1619 1.80691 54.8988 3.07659C58.8758 3.73259 62.8655 4.70178 66.4508 6.58514C70.036 8.4685 72.9783 11.2025 75.6566 14.1609C78.3707 17.1118 80.8802 20.2424 83.1678 23.5311C85.4331 26.845 87.3151 30.4297 88.2774 34.3361C89.3079 38.5049 89.4867 42.8895 89.5804 47.1641C89.7216 51.0418 89.3841 54.9221 88.5755 58.7181C88.1658 60.5734 87.596 62.3902 86.8723 64.1481C86.0723 65.9376 85.1563 67.6737 84.1301 69.3454C82.231 72.6042 80.4554 76.0027 77.5983 78.5547C74.5112 81.3057 71.3092 83.9467 67.4855 85.6353C63.6618 87.324 59.5741 88.0985 55.4949 88.6995C51.1815 89.3343 46.6808 90.0707 42.3205 89.4444C39.2859 88.9918 36.2793 88.3701 33.3148 87.5822C30.2661 86.7865 27.4217 85.3941 24.654 83.9128C21.7697 82.4003 19.0464 80.6024 16.5254 78.5463C11.3562 74.2717 7.1322 68.537 4.92655 62.1886C3.58101 58.3076 3.02747 54.2066 2.84437 50.1182C2.65904 45.9683 2.74011 41.8108 3.08708 37.6711C3.38373 33.4817 4.21797 29.3471 5.56951 25.3679C6.72055 22.1308 8.3633 19.0878 10.4407 16.3447C14.5119 11.0763 19.8768 6.93597 26.0208 4.32088C32.2011 1.62351 38.9634 0.510309 45.6886 1.0832C52.6703 1.76953 59.3975 4.05243 65.3437 7.75324C71.3547 11.4503 76.5444 16.3263 80.596 22.0837C82.8612 25.3087 85.0839 28.8553 85.5864 32.8379C85.7863 34.9478 85.856 37.0679 85.795 39.1863C85.795 41.2262 85.795 43.2619 85.7397 45.2976C85.5225 53.2797 84.5687 61.5199 80.6598 68.6343C77.2274 74.8357 71.9117 79.8008 65.4714 82.8209C57.8794 86.376 49.2909 86.5537 41.0857 85.8046C36.7332 85.4661 32.4069 84.8526 28.1328 83.9678C24.5234 83.1988 21.0691 81.834 17.9135 79.9302C12.1492 76.327 7.53436 71.1691 4.60719 65.0581C1.50955 58.5499 0.345499 51.2981 1.25187 44.1549C2.1987 36.6112 5.03453 29.4241 9.49967 23.2518C10.9006 21.2922 12.4207 19.4174 13.8599 17.4832C15.0521 15.875 16.2572 14.2752 17.5771 12.7642C20.4114 9.44359 23.9588 6.79697 27.9582 5.0192C33.7789 2.47984 40.2724 1.65455 46.5658 1.32444C47.179 1.29481 47.1832 0.342552 46.5658 0.372178V0.367945Z" fill="#397A24"/>
</svg>
